<?xml version="1.0" encoding="UTF-8" standalone="no"?>
<!-- Created with Inkscape (http://www.inkscape.org/) -->

<svg
   width="22.511009mm"
   height="22.511078mm"
   viewBox="0 0 22.511009 22.511078"
   version="1.1"
   id="svg8341"
   xml:space="preserve"
   inkscape:export-filename="image.svg"
   inkscape:export-xdpi="102.41557"
   inkscape:export-ydpi="102.41557"
   xmlns:inkscape="http://www.inkscape.org/namespaces/inkscape"
   xmlns:sodipodi="http://sodipodi.sourceforge.net/DTD/sodipodi-0.dtd"
   xmlns:xlink="http://www.w3.org/1999/xlink"
   xmlns="http://www.w3.org/2000/svg"
   xmlns:svg="http://www.w3.org/2000/svg"><sodipodi:namedview
     id="namedview8343"
     pagecolor="#505050"
     bordercolor="#eeeeee"
     borderopacity="1"
     inkscape:showpageshadow="0"
     inkscape:pageopacity="0"
     inkscape:pagecheckerboard="0"
     inkscape:deskcolor="#505050"
     inkscape:document-units="mm"
     showgrid="false" /><defs
     id="defs8338"><linearGradient
       inkscape:collect="always"
       id="linearGradient15568"><stop
         style="stop-color:#ff9500;stop-opacity:1;"
         offset="0"
         id="stop15564" /><stop
         style="stop-color:#ffe000;stop-opacity:1;"
         offset="1"
         id="stop15566" /></linearGradient><inkscape:path-effect
       effect="bspline"
       id="path-effect15562"
       is_visible="true"
       lpeversion="1"
       weight="33.333333"
       steps="2"
       helper_size="0"
       apply_no_weight="true"
       apply_with_weight="true"
       only_selected="false" /><linearGradient
       inkscape:collect="always"
       id="linearGradient13721"><stop
         style="stop-color:#114705;stop-opacity:1;"
         offset="0"
         id="stop13717" /><stop
         style="stop-color:#7fa703;stop-opacity:1;"
         offset="1"
         id="stop13719" /></linearGradient><linearGradient
       inkscape:collect="always"
       id="linearGradient12535"><stop
         style="stop-color:#114705;stop-opacity:1;"
         offset="0"
         id="stop12531" /><stop
         style="stop-color:#7fa703;stop-opacity:1;"
         offset="1"
         id="stop12533" /></linearGradient><linearGradient
       inkscape:collect="always"
       id="linearGradient8774"><stop
         style="stop-color:#26680d;stop-opacity:1;"
         offset="0"
         id="stop8770" /><stop
         style="stop-color:#7ca503;stop-opacity:1;"
         offset="1"
         id="stop8772" /></linearGradient><linearGradient
       inkscape:collect="always"
       xlink:href="#linearGradient8774"
       id="linearGradient8776"
       x1="321.73358"
       y1="406.23285"
       x2="301.22748"
       y2="347.71976"
       gradientUnits="userSpaceOnUse" /><linearGradient
       inkscape:collect="always"
       xlink:href="#linearGradient12535"
       id="linearGradient12537"
       x1="348.875"
       y1="399"
       x2="323.25"
       y2="338.875"
       gradientUnits="userSpaceOnUse" /><linearGradient
       inkscape:collect="always"
       xlink:href="#linearGradient13721"
       id="linearGradient13723"
       x1="322.125"
       y1="384"
       x2="290.5"
       y2="373.75"
       gradientUnits="userSpaceOnUse" /><linearGradient
       inkscape:collect="always"
       xlink:href="#linearGradient15568"
       id="linearGradient15570"
       x1="81.44735"
       y1="110.94467"
       x2="85.282661"
       y2="108.3722"
       gradientUnits="userSpaceOnUse" /></defs><g
     inkscape:label="Calque 1"
     inkscape:groupmode="layer"
     id="layer1"
     transform="translate(-77.546717,-86.941068)"><g
       id="g16688"><path
         style="fill:#114705;fill-opacity:1;fill-rule:evenodd;stroke-width:0.125"
         d="m 358.20996,383.08618 c -2.34618,0.44084 -4.58214,1.36119 -6.87314,2.02627 -1.22224,0.48241 -2.60516,0.63476 -3.71182,1.35459 -0.47407,1.15649 -0.20436,2.48789 -0.37232,3.69845 -0.0285,1.5222 -0.32326,3.05003 -0.2517,4.57743 0.36606,1.0863 1.73514,1.09586 2.66381,1.35425 2.61124,0.21942 4.82519,-1.63847 6.49537,-3.4333 1.93957,-2.04442 3.24859,-4.74643 3.24848,-7.60127 0.0985,-0.8375 -0.1004,-2.02771 -1.19868,-1.97642 z"
         id="path15386"
         transform="scale(0.26458333)" /><path
         id="path15105"
         style="fill:#7fa703;fill-opacity:1;fill-rule:evenodd;stroke-width:0.125"
         d="m 339.04102,334.93946 c -0.0426,-6.8e-4 -0.0843,2.8e-4 -0.12695,0.004 -1.17709,0.32604 -1.88196,1.48379 -2.70118,2.3125 -0.57888,0.67556 -1.53474,1.75616 -0.63281,2.56836 3.15188,1.81213 6.45598,3.38223 9.66602,5.10157 1.39837,0.67426 2.73796,1.53346 4.18164,2.08007 0.94058,0.24732 1.52493,-0.93038 1.0625,-1.67773 -1.72925,-4.9983 -6.17846,-8.63243 -11.07031,-10.33203 -0.12336,-0.0344 -0.25125,-0.0546 -0.37891,-0.0566 z m -7.23047,6.36328 c -1.02531,0.004 -1.37657,1.40287 -0.61914,2.01367 2.18477,1.94456 3.9593,4.29201 5.54883,6.73633 0.72719,0.99701 1.24474,2.19812 2.20117,3 0.99323,0.35874 1.99938,-0.33305 2.97266,-0.51367 1.95158,-0.64502 3.9698,-1.17455 5.85742,-1.96094 0.86998,-0.49515 0.35896,-1.72711 -0.49219,-1.92578 -4.57349,-2.36871 -9.1457,-4.75415 -13.83203,-6.89258 -0.5264,-0.20064 -1.06025,-0.46798 -1.63672,-0.45703 z"
         transform="scale(0.26458333)" /><path
         id="path13712"
         style="fill:url(#linearGradient13723);fill-opacity:1;fill-rule:evenodd;stroke-width:0.125"
         d="m 308.60547,366.7129 c -1.29767,0.0815 -1.44497,1.60787 -1.60351,2.60156 -0.60223,4.20006 -0.43388,8.46254 -0.48242,12.69336 0.0401,1.00381 -0.15356,2.56752 1.09179,2.91211 1.56664,-0.13604 3.08042,-0.71861 4.62305,-1.03516 2.19778,-0.58987 4.44132,-1.04199 6.60937,-1.72266 1.07267,-0.59285 0.50631,-1.9674 0.25586,-2.86914 -1.42675,-4.15402 -3.79708,-8.08579 -7.16015,-10.95312 -0.97258,-0.73275 -2.08158,-1.55012 -3.33399,-1.62695 z m 9.82227,18.35742 c -0.0357,-10e-4 -0.0712,-5.5e-4 -0.10742,0.002 -2.52844,0.42032 -5.01393,1.1145 -7.49219,1.76953 -0.94332,0.0678 -1.46017,1.33909 -0.67383,1.94922 1.61493,1.19948 3.42751,2.19043 5.3457,2.8125 1.25653,0.3791 2.00256,-1.00979 2.60938,-1.85742 0.62249,-1.13467 1.22118,-2.36046 1.35351,-3.66016 -0.026,-0.54498 -0.49887,-0.99457 -1.03515,-1.01562 z"
         transform="scale(0.26458333)" /><path
         style="fill:url(#linearGradient12537);fill-opacity:1;fill-rule:evenodd;stroke-width:0.0883883"
         d="m 349.17023,331.84922 c -1.66671,0.10627 -3.33992,0.32536 -4.96201,0.72402 -0.81461,0.26195 -0.91775,1.46119 -0.18351,1.8874 1.48833,0.98878 3.00142,1.97 4.25214,3.26312 3.25597,3.22973 5.43515,7.68311 5.50562,12.30773 -0.1361,1.16098 -1.44323,1.52575 -2.36797,1.89064 -4.09457,1.46861 -8.22878,2.80127 -12.44415,3.89362 -0.50331,0.17128 -1.23176,0.25514 -1.567,-0.32507 -1.15849,-1.50865 -1.94824,-3.26251 -3.04594,-4.81561 -2.30012,-3.53921 -5.25588,-6.70308 -8.89218,-8.88924 -1.78233,-1.07768 -3.68816,-2.14862 -5.79358,-2.36681 -2.47258,0.19346 -4.84734,1.00484 -7.21184,1.70589 -1.33046,0.46133 -2.73105,0.7789 -3.98897,1.4174 -0.68183,0.51213 -0.40566,1.54967 0.30919,1.87929 5.02647,2.88187 9.23963,6.91772 12.89089,11.38892 5.02624,6.13814 8.97063,13.11851 11.31387,20.71061 0.96937,3.21779 1.70105,6.48928 1.9662,9.87376 0.0771,2.75536 0.17306,5.53613 -0.35677,8.27561 -0.55384,3.3847 -1.66468,6.66861 -3.27958,9.69471 -0.37216,0.87582 -0.99267,1.62402 -1.3599,2.49516 -0.19796,0.83736 0.76811,1.52323 1.50899,1.12591 4.67151,-1.89383 8.96531,-5.15042 11.38552,-9.64434 1.15874,-2.10603 1.7956,-4.4717 1.88963,-6.87184 0.17012,-2.14607 0.0418,-4.30936 0.21374,-6.4508 0.21553,-0.39588 0.79158,-0.40719 1.16378,-0.61731 4.56953,-1.66721 9.27305,-3.07137 13.93975,-4.52683 0.30677,-0.0934 0.74574,-0.17993 0.84055,0.25153 0.75678,1.4481 0.80365,3.09024 0.90443,4.67405 0.14275,3.04011 -1.10891,5.95997 -2.83223,8.40259 -0.52893,0.57464 -0.32943,1.66262 0.50524,1.80099 0.87461,0.07 1.62898,-0.55046 2.40996,-0.86507 4.09802,-1.93966 7.03429,-5.80488 8.55462,-10.00294 1.20446,-3.44772 1.67535,-7.12022 1.6543,-10.76252 0.0678,-3.04558 -0.0715,-6.09574 -0.5343,-9.10901 -1.33514,-8.11647 -4.04005,-16.13302 -8.73457,-22.94265 -2.5081,-3.55213 -5.55578,-7.01502 -9.67138,-8.69512 -1.2626,-0.50472 -2.6188,-0.80294 -3.98254,-0.77779 z m 12.76555,18.77838 c 0.43109,0.0563 0.78546,0.47223 0.98177,0.82311 0.17744,0.66206 -0.49516,1.08382 -0.95518,1.39074 -0.60122,0.018 -1.12011,-0.56474 -1.30304,-1.09104 0.0956,-0.59942 0.66231,-1.12021 1.27645,-1.12281 z m -6.38916,7.94666 c 2.64947,-0.0647 4.97005,2.35147 5.0849,4.9472 0.16652,1.49625 0.25731,3.09609 -0.5153,4.45511 -1.37345,3.16861 -4.7432,5.23351 -8.16632,5.25109 -1.37613,0.0548 -2.75578,0.15644 -4.07995,-0.34122 -0.72819,-0.19712 -1.41901,-1.16006 -0.94051,-1.86686 0.76063,-0.70243 1.8668,-0.25392 2.7744,-0.21682 2.42296,0.25013 5.14639,-0.1023 6.98889,-1.8313 1.37708,-1.24144 1.56299,-3.24848 1.43286,-4.98911 -0.0847,-1.37714 -1.10711,-2.76877 -2.56499,-2.84293 -1.87829,-0.17494 -3.79517,0.46507 -5.32626,1.53592 -1.87948,1.42917 -3.11895,3.49177 -4.78627,5.1286 -0.78079,0.40602 -1.59495,-0.57669 -1.57441,-1.31581 0.78044,-1.51858 2.05221,-2.71644 3.20571,-3.95325 1.41939,-1.48427 3.01977,-2.91805 5.05025,-3.46975 1.10649,-0.32483 2.26436,-0.48565 3.417,-0.49087 z m -23.15602,0.47699 c 0.5362,0.12068 0.99555,0.73811 0.96692,1.28629 -0.14624,0.80481 -1.26829,1.22042 -1.81749,0.5381 -0.37323,-0.29432 -0.56177,-0.82306 -0.20284,-1.21172 0.23401,-0.34228 0.62643,-0.61747 1.05341,-0.61267 z"
         id="path12529"
         transform="scale(0.26458333)" /><path
         style="fill:url(#linearGradient8776);fill-opacity:1;fill-rule:evenodd;stroke-width:0.176777"
         d="m 302.4518,345.1344 c -1.68084,-0.15486 -3.04439,1.14988 -3.4784,2.68935 -1.58334,4.75054 -2.03392,9.80243 -2.32381,14.77563 -0.25762,10.23461 -0.26535,20.48317 0.14638,30.71355 -0.057,1.34561 0.36108,2.68382 1.45359,3.53936 4.68845,4.26024 9.92708,7.9379 15.50767,10.93633 2.95244,1.48647 6.29865,3.05509 9.68163,2.32813 2.16958,-0.80961 3.34351,-3.02831 4.60861,-4.82395 2.37674,-3.97761 4.07565,-8.48477 4.37316,-13.13476 0.13847,-4.46944 0.0801,-9.0085 -1.22535,-13.32696 -2.24758,-8.13919 -6.45498,-15.69848 -11.85171,-22.16631 -4.13549,-4.4823 -8.5199,-9.31197 -14.52323,-11.18614 -0.77032,-0.21394 -1.56679,-0.35545 -2.36854,-0.34423 z m 6.04908,18.88403 c 2.75643,0.12309 4.90441,2.22347 6.78174,4.03134 3.02733,3.28168 5.57588,7.21971 6.5504,11.62376 0.6308,3.90525 0.77856,8.31799 -1.68835,11.6607 -0.95893,1.4157 -2.3011,2.8869 -4.16462,2.78838 -2.13312,0.16824 -3.96581,-1.2913 -5.72901,-2.24044 -2.21375,-1.39162 -4.30707,-2.93115 -6.16716,-4.82684 0.10018,-6.01168 -0.2355,-12.03528 0.36564,-18.01637 0.30949,-1.69773 0.6822,-3.74616 2.22835,-4.75433 0.56744,-0.25985 1.20956,-0.27799 1.82301,-0.2662 z"
         id="path8768"
         transform="scale(0.26458333)" /><g
         id="g8766"
         transform="translate(9.9454685,-13.050526)"><path
           style="fill:#000000;fill-rule:evenodd;stroke-width:0.0467722"
           d="m 82.412374,99.991859 c -0.992315,0.01627 -1.84784,0.199591 -2.777086,0.527961 -0.581368,0.25956 -1.013939,0.92625 -1.429393,1.36905 -0.241106,0.29505 -0.476845,0.64803 -0.89132,0.69784 -0.281734,0.0535 -0.580959,0.25973 -0.834771,0.0319 -0.619736,-0.28974 -1.260671,-0.65439 -1.961695,-0.65689 -1.411406,0.23497 -2.751124,0.76682 -4.109312,1.19992 -0.634244,0.23146 -1.385814,0.38586 -1.767081,1.00659 -0.656479,1.02667 -0.733219,2.29036 -0.900904,3.46542 -0.211777,2.0056 -0.113284,4.02707 -0.135413,6.03993 0.02588,1.38623 -0.02673,2.78101 0.138512,4.15998 0.09636,0.53042 0.617675,0.82844 0.972624,1.18198 1.354942,1.10878 2.77033,2.18037 4.362053,2.92785 0.836388,0.39467 1.76571,0.67607 2.697438,0.5113 2.04648,-0.31897 4.084941,-1.27064 5.355095,-2.95378 0.221795,-0.29428 0.387165,-0.62457 0.57218,-0.94165 0.802354,0.26749 1.661562,0.15452 2.491076,0.15283 1.674997,-0.15957 3.289368,-1.10201 4.13349,-2.57786 1.074729,-1.80674 1.226515,-3.99995 1.018191,-6.04758 -0.31151,-2.67929 -1.210382,-5.32927 -2.794347,-7.52813 -0.845418,-1.13399 -1.965132,-2.19 -3.38011,-2.51821 -0.250566,-0.04226 -0.505585,-0.05056 -0.759227,-0.04841 z m 0.144245,1.108191 c 1.149559,0.0645 2.06393,0.87409 2.765753,1.70824 1.544799,1.87815 2.378152,4.22309 2.787804,6.59391 0.193169,1.49319 0.256434,3.03553 -0.07751,4.51387 -0.307856,1.39526 -1.183619,2.73184 -2.538997,3.29151 -0.06729,0.003 -0.467352,0.24869 -0.284903,0.0514 0.544279,-0.72778 0.911137,-1.62961 0.814834,-2.55172 -0.0186,-0.46597 -0.0673,-0.98254 -0.366411,-1.35914 -0.292187,-0.18643 -0.630168,0.0842 -0.93218,0.12651 -1.171776,0.3786 -2.361094,0.71413 -3.505604,1.17033 -0.296355,0.2268 -0.114168,0.66378 -0.175528,0.98608 -0.0094,0.79445 0.0092,1.61823 -0.337595,2.36041 -0.54334,1.31261 -1.765043,2.25747 -3.065047,2.78421 -0.165579,0.0727 0.145849,-0.26938 0.158856,-0.36066 1.032042,-1.77296 1.366012,-3.90143 1.042149,-5.91804 -0.507452,-3.22104 -2.184784,-6.18583 -4.422794,-8.52477 -0.771551,-0.81851 -1.701778,-1.54828 -2.663364,-2.07515 0.927854,-0.32419 1.868204,-0.64456 2.839947,-0.80381 0.708158,0.10685 1.335694,0.51535 1.915713,0.91523 1.075883,0.77875 1.817569,1.9069 2.457757,3.04935 0.141399,0.28892 0.452739,0.5326 0.786469,0.40108 1.179253,-0.32083 2.350521,-0.68283 3.497844,-1.10448 0.35056,-0.11844 0.730565,-0.39697 0.661205,-0.81587 -0.09246,-1.73793 -1.172991,-3.33821 -2.681679,-4.17782 -0.240269,-0.10504 0.213947,-0.10266 0.306956,-0.14668 0.342508,-0.0594 0.671584,-0.11158 1.01632,-0.11401 z m -2.824234,0.79357 c 1.21299,0.42504 2.355824,1.28795 2.796098,2.53675 0.193461,0.33037 -0.04286,0.17483 -0.235151,0.0635 -1.110747,-0.58395 -2.236348,-1.13958 -3.339904,-1.73718 0.229169,-0.30453 0.476848,-0.63435 0.778957,-0.86309 z m -1.769761,1.70591 c 1.368491,0.6011 2.686341,1.31263 4.017566,1.99494 -0.712872,0.24533 -1.425639,0.47624 -2.151248,0.67573 -0.532699,-0.84796 -1.092007,-1.76433 -1.868331,-2.45333 -0.0872,-0.1292 -0.338294,-0.19427 0.0021,-0.21734 z m -7.799075,1.00258 c 0.789517,0.0494 1.46327,0.49901 2.095339,0.93316 0.901229,0.69898 1.704562,1.52571 2.425118,2.40795 1.632667,2.13021 2.90396,4.65815 3.106859,7.38253 0.167849,2.02236 -0.414967,4.12801 -1.757865,5.67229 -0.153602,0.21424 -0.376092,0.39174 -0.655085,0.35207 -1.030912,0.0908 -1.944936,-0.45922 -2.810899,-0.93453 -1.24606,-0.77167 -2.460567,-1.61489 -3.535045,-2.61513 -0.291195,-0.24406 -0.171384,-0.67305 -0.229931,-1.00514 -0.07713,-2.53389 -0.12229,-5.10605 -0.02887,-7.64058 0.07693,-1.31446 0.178376,-2.65906 0.575609,-3.93581 0.09604,-0.2749 0.247909,-0.61672 0.593238,-0.60338 0.07348,-0.009 0.147494,-0.0133 0.22153,-0.0134 z m 14.735424,10.02021 c 0.05904,0.68366 -0.139195,1.39056 -0.592051,1.92616 -0.319926,0.41034 -0.730842,0.78933 -1.207489,0.994 -0.182348,0.0376 -0.34589,0.12231 -0.541078,0.047 -0.133977,-0.067 -0.497417,-0.0125 -0.470736,-0.20189 0.11897,-0.63672 0.07412,-1.29273 0.137303,-1.92999 0.888703,-0.27891 1.783622,-0.59659 2.674051,-0.83532 z"
           id="path8729"
           sodipodi:nodetypes="cccccccccccccccccccccccsccccccccccccccccccccccccsssccccsccccccccccccccccccccsccccccs" /><path
           style="fill:#000000;fill-rule:evenodd;stroke-width:0.0467722"
           d="m 71.593021,109.11764 c -0.353964,-0.0337 -0.696335,0.12567 -0.871587,0.4405 -0.512665,0.87321 -0.41288,1.93658 -0.450446,2.909 0.0034,1.01459 -0.02175,2.03572 0.01201,3.04609 0.144682,0.31896 0.499382,0.4995 0.749763,0.73946 0.694692,0.53718 1.437023,1.06349 2.287539,1.3129 0.425016,0.0487 0.892466,0.006 1.202558,-0.32476 0.682808,-0.64551 1.07488,-1.58899 1.025168,-2.53071 0.03324,-0.84242 -0.126434,-1.68806 -0.508574,-2.44258 -0.603872,-1.22868 -1.49791,-2.38962 -2.73544,-3.02566 -0.222189,-0.10107 -0.468553,-0.13462 -0.710994,-0.12424 z m 0.08724,1.18017 c 0.67427,0.16901 1.160741,0.74366 1.575091,1.2697 0.50708,0.70751 0.947349,1.49984 1.100151,2.36319 -0.965253,0.27379 -1.953728,0.50158 -2.935136,0.74332 -0.04625,-1.36836 -0.08683,-2.76036 0.14534,-4.10937 0.0368,-0.0628 0.02114,-0.26641 0.114554,-0.26684 z m 2.669853,4.91026 c -0.129572,0.44466 -0.292246,0.95642 -0.680207,1.23471 -0.547685,-0.13095 -1.027261,-0.45218 -1.486752,-0.76571 0.718537,-0.19425 1.444056,-0.36377 2.179839,-0.52336 l -0.0108,0.0455 z"
           id="path8731" /><path
           style="fill:#000000;fill-rule:evenodd;stroke-width:0.0467722"
           d="m 77.965273,107.79176 c -0.370073,0.0283 -0.747816,0.50546 -0.443421,0.83075 0.17443,0.27998 0.571257,0.35482 0.809742,0.11026 0.390922,-0.29847 0.0802,-0.94674 -0.366321,-0.94101 z"
           id="path8733" /><path
           style="fill:#000000;fill-rule:evenodd;stroke-width:0.0467722"
           d="m 85.777413,105.56332 c -0.367697,0.0208 -0.750369,0.50704 -0.439036,0.82335 0.158694,0.25032 0.522147,0.39723 0.750088,0.14343 0.282366,-0.16375 0.346607,-0.57464 0.08112,-0.78691 -0.100708,-0.10804 -0.240826,-0.18736 -0.392172,-0.17987 z"
           id="path8735" /><path
           style="fill:url(#linearGradient15570);fill-opacity:1;fill-rule:evenodd;stroke-width:0.264583"
           d="m 81.979618,111.52751 c -0.313762,-0.0642 -0.457977,-0.23566 -0.617825,-0.49679 -0.159848,-0.26114 -0.335238,-0.61192 -0.134575,-1.05058 0.200662,-0.43866 0.777509,-0.96484 1.313537,-1.28056 0.536029,-0.31573 1.031026,-0.42097 1.399407,-0.4521 0.368381,-0.0311 0.610038,0.0117 0.793191,0.1171 0.183153,0.10536 0.307877,0.27296 0.389637,0.49903 0.08176,0.22606 0.120736,0.51059 0.07391,0.81258 -0.04682,0.302 -0.179337,0.6216 -0.381982,0.90021 -0.202644,0.27861 -0.475481,0.51637 -0.746279,0.66447 -0.270798,0.14809 -0.539741,0.20656 -0.915849,0.25724 -0.376108,0.0507 -0.859414,0.0936 -1.173177,0.0294 z"
           id="path15560"
           inkscape:path-effect="#path-effect15562"
           inkscape:original-d="m 81.809829,111.63456 c -0.143949,-0.17123 -0.288163,-0.34273 -0.432641,-0.51449 -0.175136,-0.35054 -0.350528,-0.70132 -0.526188,-1.05238 0.577133,-0.52593 1.153978,-1.05211 1.730571,-1.57856 0.495279,-0.10497 0.990275,-0.21021 1.485016,-0.31571 0.241925,0.0431 0.483577,0.086 0.724969,0.12862 0.124992,0.16787 0.249714,0.33547 0.374177,0.5028 0.03924,0.2848 0.07822,0.56933 0.116929,0.8536 -0.132259,0.31988 -0.264776,0.63948 -0.397562,0.95883 -0.272579,0.23802 -0.545413,0.47578 -0.818513,0.71327 -0.268681,0.0587 -0.537617,0.1172 -0.80682,0.1754 -0.483058,0.0431 -0.966362,0.086 -1.449938,0.12862 z" /><path
           style="fill:#000000;fill-rule:evenodd;stroke-width:0.0467722"
           d="m 84.160235,107.66552 c -0.790641,-0.0145 -1.635976,0.19995 -2.200031,0.76556 -0.439192,0.43574 -0.846976,0.93641 -1.16245,1.47192 -0.11776,0.43306 0.129287,0.79345 0.585084,0.51224 0.491077,-0.48157 0.812078,-1.26148 1.436508,-1.59804 0.539024,-0.35183 1.249558,-0.38935 1.657309,-0.28342 0.53173,0.23568 0.775473,0.90823 0.567786,1.4474 -0.178533,0.65158 -0.91136,1.16824 -2.017053,1.27944 -0.425636,0.0461 -1.246439,-0.25228 -1.410986,-0.0148 -0.192969,0.32625 0.01959,0.57737 0.375504,0.69731 0.541065,0.20029 1.147371,0.13326 1.708465,0.0629 0.831093,-0.18636 1.641981,-0.72438 1.952774,-1.53094 0.161339,-0.54602 0.108581,-0.88783 0.06697,-1.32659 -0.05812,-0.76665 -0.766839,-1.48701 -1.559883,-1.48305 z"
           id="path8737"
           sodipodi:nodetypes="ccccccccccccccc" /></g></g></g></svg>
